{"title":"Flight of the Phoenix 2004 DVDrip English Klam","uid":6702528,"size":1496327200,"categoryP":"video","categoryS":"movies","magnet":"?xt=urn:btih:01149b6ad2cdf2c6d4d1f9125b239ee38fe63506&amp;dn=Flight+of+the+Phoenix+2004+DVDrip+English+Klam&amp;tr=udp%3A%2F%2Ftracker.openbittorrent.com%3A80&amp;tr=udp%3A%2F%2Fopen.demonii.com%3A1337&amp;tr=udp%3A%2F%2Ftracker.coppersurfer.tk%3A6969&amp;tr=udp%3A%2F%2Fexodus.desync.com%3A6969","seeders":0,"leechers":0,"uploader":"Klambake","files":-1,"time":1317035857,"description":"With: Dennis Quaid, Giovanni Ribisi en Tyrese Gibson\n\nEen vrachtvliegtuig stort neer in een zandstorm in de Gobi-woestijn, met ongeveer 10 mensen aan boord. Een van de passagiers is een vliegtuigontwerper, die op het idee komt om met behulp van de onderdelen van het neergestorte vliegtuig een nieuw vliegtuig te bouwen. Hiermee willen ze ontsnappen voor het water en voedsel opraakt.\n\nSurvivors of a plane crash in the Mongolian desert work together to build a new plane. \n\n------------------ Dutch Friends ------------------\nYou can find my Friends at: http://www.Film-Test.nl \n------ They got my dutch subs ----- and more ------\n\nGeneral:\n\nComplete name                    : Flight of the Phoenix\\Flight of the Phoenix.avi\nFormat                           : AVI\nFormat/Info                      : Audio Video Interleave\nFile size                        : 1.39 GiB\nDuration                         : 1h 48mn\nOverall bit rate                 : 1 842 Kbps\nWriting application              : VirtualDubMod 1.5.4.1 (build 2178/release)\nWriting library                  : VirtualDubMod build 2178/release\n\nVideo:\n\nFormat                           : MPEG-4 Visual\nFormat profile                   : Advanced Simple@L5\nFormat settings, BVOP            : Yes\nFormat settings, QPel            : No\nFormat settings, GMC             : No warppoints\nFormat settings, Matrix          : Default (H.263)\nMuxing mode                      : Packed bitstream\nCodec ID                         : XVID\nCodec ID/Hint                    : XviD\nDuration                         : 1h 48mn\nBit rate                         : 1 386 Kbps\nWidth                            : 720 pixels\nHeight                           : 320 pixels\nDisplay aspect ratio             : 2.25:1\nFrame rate                       : 25.000 fps\nColor space                      : YUV\nChroma subsampling               : 4:2:0\nBit depth                        : 8 bits\nScan type                        : Progressive\nBits/(Pixel*Frame)               : 0.241\nStream size                      : 1.05 GiB (75%)\nWriting library                  : XviD 1.2.0.dev47 (UTC 2006-11-01)\n\nAudio:\n\nFormat                           : AC-3\nFormat/Info                      : Audio Coding 3\nMode extension                   : CM (complete main)\nCodec ID                         : 2000\nDuration                         : 1h 48mn\nBit rate mode                    : Constant\nBit rate                         : 448 Kbps\nChannel(s)                       : 6 channels\nChannel positions                : Front: L C R, Side: L R, LFE\nSampling rate                    : 48.0 KHz\nBit depth                        : 16 bits\nStream size                      : 347 MiB (24%)\nAlignment                        : Split accross interleaves\nInterleave, duration             : 80 ms (2.00 video frames)\nInterleave, preload duration     : 500 ms\nLanguage                         : English\n\n\n","torrent":{"xt":"urn:btih:01149b6ad2cdf2c6d4d1f9125b239ee38fe63506","amp;dn":"Flight+of+the+Phoenix+2004+DVDrip+English+Klam","amp;tr":["udp%3A%2F%2Ftracker.openbittorrent.com%3A80","udp%3A%2F%2Fopen.demonii.com%3A1337","udp%3A%2F%2Ftracker.coppersurfer.tk%3A6969","udp%3A%2F%2Fexodus.desync.com%3A6969"],"infoHash":"01149b6ad2cdf2c6d4d1f9125b239ee38fe63506","infoHashBuffer":{"type":"Buffer","data":[1,20,155,106,210,205,242,198,212,209,249,18,91,35,158,227,143,230,53,6]},"announce":[],"urlList":[]}}